<?xml version="1.0" standalone="no"?>
<!DOCTYPE svg PUBLIC "-//W3C//DTD SVG 20010904//EN"
 "http://www.w3.org/TR/2001/REC-SVG-20010904/DTD/svg10.dtd">
<svg version="1.0" xmlns="http://www.w3.org/2000/svg"
 viewBox="0 0 2600.000000 2600.000000"
 preserveAspectRatio="xMidYMid meet">
<metadata>
Created by potrace 1.15, written by Peter Selinger 2001-2017
</metadata>
<g transform="translate(0.000000,2600.000000) scale(0.100000,-0.100000)"
fill="#000000" stroke="none">
<path d="M12715 20263 c-1140 -11 -2586 -156 -3805 -380 -135 -24 -273 -49
-308 -54 -400 -58 -1002 -769 -1801 -2126 l-127 -215 -290 -2 c-309 -3 -387
-12 -564 -63 -170 -49 -272 -114 -359 -228 -143 -189 -228 -462 -201 -645 5
-36 10 -70 10 -77 0 -33 215 -60 561 -69 137 -4 249 -10 249 -13 -1 -3 -9 -21
-19 -40 -17 -32 -29 -38 -252 -116 -1525 -538 -2501 -1053 -2776 -1464 -42
-63 -76 -164 -68 -202 5 -22 -453 -3118 -560 -3789 -167 -1042 -172 -1857 -14
-2352 44 -138 35 -132 154 -102 55 13 107 23 115 22 12 -3 27 -120 81 -621
l66 -619 -234 -381 c-129 -210 -239 -390 -245 -401 -8 -15 -3 -26 29 -58 54
-55 162 -127 278 -186 497 -249 1472 -420 2835 -496 653 -37 843 -41 1895 -37
1406 5 2389 6 5805 6 3416 0 4399 -1 5805 -6 1052 -4 1242 0 1895 37 1175 66
2059 201 2606 399 212 77 418 192 508 284 l39 40 -20 33 c-11 18 -121 198
-245 399 l-226 366 67 619 c54 505 69 619 81 621 8 2 60 -8 115 -21 119 -30
110 -36 154 102 153 480 151 1329 -5 2292 -82 510 -573 3815 -572 3860 0 61
-18 118 -55 177 -260 411 -1247 935 -2786 1478 -223 78 -235 84 -252 116 -10
19 -18 37 -19 42 0 4 57 7 128 7 163 0 448 16 543 30 101 15 139 28 140 48 0
9 4 44 8 77 24 190 -58 452 -200 640 -87 114 -189 179 -359 228 -177 51 -255
60 -565 63 l-290 2 -112 192 c-527 901 -1023 1588 -1373 1897 -173 154 -313
233 -442 252 -35 5 -173 30 -308 54 -1046 193 -2251 326 -3310 367 -270 10
-989 17 -1405 13z m930 -978 c1504 -89 3204 -317 4725 -636 157 -32 307 -65
334 -72 l50 -13 527 -1029 c446 -871 532 -1033 563 -1058 170 -136 81 -381
-284 -787 -133 -147 -447 -567 -722 -965 -272 -393 -417 -625 -803 -1290 -310
-534 -517 -826 -757 -1066 -263 -263 -455 -333 -1028 -373 -420 -30 -551 -36
-1070 -51 -289 -8 -673 -25 -855 -37 -298 -20 -410 -22 -1155 -22 -745 0 -857
2 -1155 22 -181 12 -566 29 -855 37 -520 15 -653 21 -1070 51 -620 43 -825
130 -1128 477 -244 279 -413 535 -812 1227 -228 396 -465 767 -745 1165 -182
259 -532 720 -635 835 -149 168 -242 296 -302 415 -48 98 -52 112 -52 178 -1
86 16 124 79 182 37 35 112 174 565 1060 286 561 524 1023 528 1027 13 13 496
115 957 202 1388 262 2848 445 4155 521 146 8 292 17 325 19 86 5 331 -2 620
-19z m-7720 -4250 c271 -57 499 -178 680 -360 360 -359 453 -895 236 -1351
-26 -55 -64 -125 -83 -155 -203 -316 -539 -538 -933 -615 -135 -27 -397 -24
-532 4 -470 101 -823 402 -969 826 -59 172 -76 429 -39 601 116 550 567 965
1150 1060 117 19 379 14 490 -10z m15053 -4 c279 -60 523 -191 717 -386 119
-119 187 -215 260 -367 226 -471 130 -1012 -244 -1376 -174 -169 -403 -288
-664 -344 -135 -28 -397 -31 -532 -4 -516 101 -922 447 -1074 915 -41 125 -55
219 -55 366 0 147 14 241 55 367 143 439 536 761 1029 843 120 20 385 13 508
-14z m-15844 -3776 l1117 -125 97 -36 c476 -177 774 -463 814 -782 9 -72 8
-104 -5 -182 -20 -120 -53 -210 -77 -210 -21 0 -3213 297 -3287 306 l-52 6
-20 62 c-41 126 -56 233 -55 406 1 135 5 179 22 244 29 104 80 207 139 281 49
60 158 155 178 155 6 0 514 -56 1129 -125z m17271 77 c118 -94 203 -230 246
-388 18 -65 22 -107 23 -244 0 -173 -14 -282 -55 -406 l-20 -62 -47 -5 c-26
-4 -780 -75 -1676 -158 -1364 -127 -1630 -149 -1637 -138 -18 28 -50 146 -61
222 -54 376 257 734 814 941 l97 36 1098 124 c604 68 1112 124 1128 125 23 1
47 -12 90 -47z m-16872 -1526 c771 -96 1438 -182 1482 -190 117 -22 251 -92
329 -170 61 -60 120 -159 146 -241 7 -22 130 -350 273 -730 143 -379 266 -717
274 -750 17 -78 9 -145 -28 -221 -46 -97 -133 -162 -259 -195 -42 -11 -121 5
-1400 275 -1343 283 -1356 286 -1445 330 -287 142 -513 437 -649 846 -99 300
-156 686 -156 1061 0 137 2 159 16 159 8 0 646 -78 1417 -174z m16707 21 c0
-378 -56 -760 -156 -1066 -135 -413 -371 -716 -667 -857 -66 -31 -220 -66
-1428 -320 -1277 -270 -1357 -286 -1399 -275 -129 34 -220 103 -266 204 -40
87 -39 179 3 297 119 330 540 1439 570 1500 53 105 134 184 251 243 50 25 114
51 144 57 55 12 2858 367 2916 369 l32 1 0 -153z"/>
<path d="M10260 16749 c-1482 -31 -2787 -129 -3445 -260 l-50 -9 3 -39 c5 -52
-27 -88 -93 -105 -43 -10 -50 -16 -53 -40 -8 -66 85 -210 285 -441 230 -267
565 -718 868 -1169 233 -346 338 -515 568 -912 459 -794 671 -1096 932 -1327
188 -166 355 -215 865 -252 331 -24 550 -34 975 -45 420 -11 649 -21 1030 -45
324 -21 1726 -21 2050 0 381 24 610 34 1030 45 427 11 632 21 975 45 594 43
753 107 1021 408 221 249 392 507 774 1167 213 369 328 555 528 854 328 491
657 937 898 1216 206 239 305 391 297 456 -3 24 -10 30 -53 40 -66 17 -98 53
-93 105 l3 39 -50 9 c-156 32 -504 81 -775 110 -723 79 -1611 127 -2755 151
-544 11 -5193 10 -5735 -1z"/>
<path d="M4007 11121 c-94 -101 -137 -234 -138 -428 0 -117 15 -249 31 -266 6
-7 2953 -287 3027 -287 30 0 31 1 35 53 17 247 -141 446 -498 626 -231 116
-125 97 -1332 231 -592 66 -1077 120 -1078 120 -1 0 -22 -22 -47 -49z"/>
<path d="M21185 11049 c-1171 -131 -1074 -115 -1300 -226 -360 -178 -525 -383
-507 -630 4 -52 5 -53 35 -53 74 0 3021 280 3027 287 30 32 40 331 15 447 -30
141 -133 298 -194 295 -14 -1 -498 -55 -1076 -120z"/>
<path d="M4305 9668 c30 -404 69 -623 157 -877 47 -139 139 -321 208 -412 102
-136 247 -258 357 -299 30 -11 644 -144 1365 -296 l1311 -276 43 17 c61 23 94
65 94 120 0 33 -66 218 -261 737 -144 381 -272 724 -285 761 -46 136 -143 225
-289 266 -35 10 -2648 341 -2690 341 -14 0 -16 -11 -10 -82z"/>
<path d="M20675 9584 c-921 -116 -1319 -169 -1365 -184 -132 -43 -231 -139
-269 -264 -10 -34 -136 -373 -280 -754 -197 -524 -261 -703 -261 -736 0 -56
33 -98 94 -121 l43 -17 1312 276 c722 152 1336 286 1365 297 112 41 261 170
367 314 107 146 219 417 274 665 29 126 62 351 70 475 3 50 8 118 11 153 l6
62 -34 -1 c-18 -1 -618 -75 -1333 -165z"/>
</g>
</svg>
