<svg xmlns="http://www.w3.org/2000/svg" viewBox="0 0 100 125" x="0px" y="0px"><path d="M32.4,50.14h0c-3.49-2.01-8.84-4.56-14.55-5.26-1.29-.16-2.56,.33-3.41,1.31-.85,.98-1.16,2.31-.83,3.57,.48,1.79,1.43,3.46,2.85,4.95,.25,.26,.58,.43,.94,.46,.2,.02,4.04,.41,9.19,.41,1.42,0,2.94-.03,4.52-.1,1.28-.06,2.34-.94,2.64-2.18,.3-1.24-.24-2.5-1.35-3.14Zm-14.12,2.05c-.86-1-1.44-2.08-1.74-3.22-.11-.4,.09-.69,.19-.79,.09-.1,.35-.34,.75-.29,4.92,.61,9.62,2.75,12.86,4.57-5.54,.22-10.43-.13-12.05-.27Zm12.6,.58s0,0,0,0h0s.76-1.31,.76-1.31l-.76,1.31Z"/><path d="M67.6,50.14h0c-1.11,.64-1.65,1.9-1.35,3.14,.3,1.24,1.36,2.12,2.64,2.18,1.57,.08,3.09,.1,4.52,.1,5.15,0,8.99-.39,9.19-.41,.36-.04,.69-.2,.94-.46,1.42-1.49,2.37-3.15,2.85-4.94,.33-1.25,.02-2.59-.83-3.57-.85-.98-2.13-1.47-3.41-1.31-5.71,.7-11.07,3.25-14.55,5.26Zm15.68-1.96c.09,.1,.29,.39,.19,.79-.3,1.14-.89,2.22-1.74,3.22-1.63,.14-6.51,.49-12.05,.27,3.24-1.81,7.94-3.96,12.86-4.57,.41-.05,.66,.19,.75,.29Z"/><path d="M94,35.54c0-2.87-2.33-5.2-5.2-5.2h-6.46c-.84,0-1.52,.68-1.52,1.52v2.49c-.32-1.03-.71-2.21-1.18-3.45-1.94-5.14-4.14-8.61-6.53-10.3-.2-.14-.42-.23-.66-.26-.12-.02-11.48-1.61-21.59-1.77-.06,0-.12-.01-.19-.01-.23,0-.45,0-.68,0-.23,0-.46,0-.68,0-.06,0-.12,0-.19,.01-10.11,.16-21.47,1.75-21.59,1.77-.24,.03-.47,.12-.66,.26-2.39,1.69-4.59,5.15-6.53,10.3-.47,1.24-.86,2.42-1.18,3.45v-2.49c0-.84-.68-1.52-1.52-1.52h-6.46c-2.87,0-5.2,2.33-5.2,5.2s2.35,5.23,5.23,5.23h.96c-.87,.61-1.62,1.2-2.26,1.72-1.6,1.31-2.51,3.25-2.51,5.31v29.77c0,2.14,1.74,3.87,3.87,3.87h8.4c2.14,0,3.87-1.74,3.87-3.87v-4.41h52.89v4.41c0,2.14,1.74,3.87,3.87,3.87h8.4c2.14,0,3.87-1.74,3.87-3.87v-29.77c0-2.07-.92-4-2.51-5.31-.63-.52-1.39-1.11-2.26-1.72h.96c2.88,0,5.23-2.35,5.23-5.23Zm-10.14,1.79v-3.95h4.94c1.19,0,2.16,.97,2.16,2.16s-.98,2.19-2.19,2.19h-4.96c.03-.13,.05-.26,.05-.4ZM28.36,23.29c2.11-.28,12.56-1.63,21.64-1.7,9.08,.07,19.53,1.41,21.64,1.7,3.14,2.51,5.6,9.42,6.73,13.48H21.62c1.14-4.06,3.6-10.97,6.73-13.48Zm-19.32,12.25c0-1.19,.97-2.16,2.16-2.16h4.94v3.95c0,.14,.02,.27,.05,.4h-4.96c-1.21,0-2.19-.98-2.19-2.19Zm11.48,42.04c0,.46-.37,.84-.84,.84H11.29c-.46,0-.84-.37-.84-.84v-4.83c.62,.27,1.31,.43,2.03,.43h8.04v4.41Zm28.8-7.44H25.86v-2.15c0-3.55,2.89-6.45,6.45-6.45h35.4c3.55,0,6.45,2.89,6.45,6.45v2.15h-24.83Zm39.4,8.28h-8.4c-.46,0-.84-.37-.84-.84v-4.41h8.04c.72,0,1.41-.15,2.03-.43v4.83c0,.46-.37,.84-.84,.84Zm.84-30.61v20.3c0,1.12-.91,2.03-2.03,2.03h-10.34v-2.15c0-5.23-4.25-9.48-9.48-9.48H32.3c-5.23,0-9.48,4.25-9.48,9.48v2.15H12.48c-1.12,0-2.03-.91-2.03-2.03v-20.3c0-1.15,.51-2.24,1.4-2.97,1.79-1.47,4.63-3.52,8.12-5.03h60.05c3.49,1.51,6.33,3.56,8.12,5.03,.89,.73,1.4,1.81,1.4,2.97Z"/><text x="0" y="115" fill="#000000" font-size="5px" font-weight="bold" font-family="'Helvetica Neue', Helvetica, Arial-Unicode, Arial, Sans-serif">Created by Yon ten</text><text x="0" y="120" fill="#000000" font-size="5px" font-weight="bold" font-family="'Helvetica Neue', Helvetica, Arial-Unicode, Arial, Sans-serif">from the Noun Project</text></svg>