<svg xmlns="http://www.w3.org/2000/svg" width="23" height="23" viewBox="0 0 23 23">
  <g id="vuesax_linear_clipboard-export" data-name="vuesax/linear/clipboard-export" transform="translate(-300 -252)">
    <g id="clipboard-export" transform="translate(300 252)">
      <path id="Vector" d="M2,4H6C8,4,8,3,8,2,8,0,7,0,6,0H2C1,0,0,0,0,2S1,4,2,4Z" transform="translate(7.5 2)" fill="none" stroke="#6ebf8b" stroke-linecap="round" stroke-linejoin="round" stroke-width="1.5"/>
      <path id="Vector-2" data-name="Vector" d="M11,17.98H6c-5,0-6-2-6-6v-6C0,1.42,1.67.18,5,0" transform="translate(3 3.02)" fill="none" stroke="#6ebf8b" stroke-linecap="round" stroke-linejoin="round" stroke-width="1.5"/>
      <path id="Vector-3" data-name="Vector" d="M0,0C3.33.18,5,1.41,5,5.98v5" transform="translate(15 3.094)" fill="none" stroke="#6ebf8b" stroke-linecap="round" stroke-linejoin="round" stroke-width="1.5"/>
      <path id="Vector-4" data-name="Vector" d="M0,3V0H3" transform="translate(14.286 15.238)" fill="none" stroke="#6ebf8b" stroke-linecap="round" stroke-linejoin="round" stroke-width="1.5"/>
      <path id="Vector-5" data-name="Vector" d="M5.96,5.96,0,0" transform="translate(14.04 15.04)" fill="none" stroke="#6ebf8b" stroke-linecap="round" stroke-linejoin="round" stroke-width="1.5"/>
      <path id="Vector-6" data-name="Vector" d="M0,0H23V23H0Z" fill="none" opacity="0"/>
    </g>
  </g>
</svg>
