<svg xmlns="http://www.w3.org/2000/svg" width="52" height="46" viewBox="0 0 52 46">
  <g id="_x31_3._bedroom" transform="translate(-2.64 -6)">
    <path id="Path_14996" data-name="Path 14996" d="M43.68,39H15.52A3.52,3.52,0,0,0,12,42.52v8.8H47.2v-8.8A3.52,3.52,0,0,0,43.68,39Z" transform="translate(-0.96 -3.84)" fill="none" stroke="#fff" stroke-linecap="round" stroke-linejoin="round" stroke-miterlimit="10" stroke-width="2"/>
    <path id="Path_14997" data-name="Path 14997" d="M28.68,28.88a13.739,13.739,0,0,0-9.68,0v8.8h9.68Z" transform="translate(-1.8 -2.52)" fill="none" stroke="#fff" stroke-linecap="round" stroke-linejoin="round" stroke-miterlimit="10" stroke-width="2"/>
    <path id="Path_14998" data-name="Path 14998" d="M43.68,28.88a13.739,13.739,0,0,0-9.68,0v8.8h9.68Z" transform="translate(-3.6 -2.52)" fill="none" stroke="#fff" stroke-linecap="round" stroke-linejoin="round" stroke-miterlimit="10" stroke-width="2"/>
    <path id="Path_14999" data-name="Path 14999" d="M18.2,56.52h0a2.2,2.2,0,0,1-2.2-2.2V53h4.4v1.32A2.2,2.2,0,0,1,18.2,56.52Z" transform="translate(-1.44 -5.52)" fill="none" stroke="#fff" stroke-linecap="round" stroke-linejoin="round" stroke-miterlimit="10" stroke-width="2"/>
    <path id="Path_15000" data-name="Path 15000" d="M45.2,56.52h0a2.2,2.2,0,0,1-2.2-2.2V53h4.4v1.32A2.2,2.2,0,0,1,45.2,56.52Z" transform="translate(-4.68 -5.52)" fill="none" stroke="#fff" stroke-linecap="round" stroke-linejoin="round" stroke-miterlimit="10" stroke-width="2"/>
    <rect id="Rectangle_17472" data-name="Rectangle 17472" width="4" height="11" transform="translate(49.64 36)" fill="none" stroke="#fff" stroke-linecap="round" stroke-linejoin="round" stroke-miterlimit="10" stroke-width="2"/>
    <line id="Line_128" data-name="Line 128" y1="6" transform="translate(51.64 30)" fill="none" stroke="#fff" stroke-linecap="round" stroke-linejoin="round" stroke-miterlimit="10" stroke-width="2"/>
    <path id="Path_15001" data-name="Path 15001" d="M58.64,28H56.88L56,32.4h3.52Z" transform="translate(-6.24 -2.52)" fill="none" stroke="#fff" stroke-linecap="round" stroke-linejoin="round" stroke-miterlimit="10" stroke-width="2"/>
    <rect id="Rectangle_17473" data-name="Rectangle 17473" width="4" height="11" transform="translate(3.64 36)" fill="none" stroke="#fff" stroke-linecap="round" stroke-linejoin="round" stroke-miterlimit="10" stroke-width="2"/>
    <line id="Line_129" data-name="Line 129" y1="6" transform="translate(5.64 30)" fill="none" stroke="#fff" stroke-linecap="round" stroke-linejoin="round" stroke-miterlimit="10" stroke-width="2"/>
    <path id="Path_15002" data-name="Path 15002" d="M6.64,28H4.88L4,32.4H7.52Z" transform="translate(0 -2.52)" fill="none" stroke="#fff" stroke-linecap="round" stroke-linejoin="round" stroke-miterlimit="10" stroke-width="2"/>
    <rect id="Rectangle_17474" data-name="Rectangle 17474" width="9" height="9" transform="translate(17.64 7)" fill="none" stroke="#fff" stroke-linecap="round" stroke-linejoin="round" stroke-miterlimit="10" stroke-width="2"/>
    <rect id="Rectangle_17475" data-name="Rectangle 17475" width="9" height="9" transform="translate(30.64 7)" fill="none" stroke="#fff" stroke-linecap="round" stroke-linejoin="round" stroke-miterlimit="10" stroke-width="2"/>
  </g>
</svg>
