<svg width="14" height="16" viewBox="0 0 14 16" fill="none" xmlns="http://www.w3.org/2000/svg">
<path d="M5.75 2.58332C5.75 2.47282 5.7939 2.36684 5.87204 2.2887C5.95018 2.21056 6.05616 2.16666 6.16667 2.16666H7.83333C7.94384 2.16666 8.04982 2.21056 8.12796 2.2887C8.2061 2.36684 8.25 2.47282 8.25 2.58332C8.25 2.69383 8.2061 2.79981 8.12796 2.87795C8.04982 2.95609 7.94384 2.99999 7.83333 2.99999H6.16667C6.05616 2.99999 5.95018 2.95609 5.87204 2.87795C5.7939 2.79981 5.75 2.69383 5.75 2.58332Z" fill="#F15905"/>
<path fill-rule="evenodd" clip-rule="evenodd" d="M10.9017 5.71667C10.7504 5.83542 10.5542 5.93042 10.3175 6.0075C10.328 6.11472 10.3333 6.22333 10.3333 6.33333C10.3331 6.7847 10.2413 7.23132 10.0634 7.64612C9.88542 8.06093 9.62508 8.43528 9.29814 8.74646C8.97121 9.05765 8.58447 9.2992 8.16139 9.45647C7.73832 9.61373 7.28771 9.68343 6.83688 9.66134C6.38606 9.63926 5.94442 9.52584 5.53874 9.32798C5.13306 9.13011 4.77179 8.85192 4.47684 8.51026C4.18189 8.16861 3.95939 7.77061 3.82285 7.34039C3.6863 6.91018 3.63855 6.45672 3.68249 6.0075C3.44583 5.93042 3.24958 5.83542 3.09874 5.71667C2.90291 5.5625 2.77166 5.35667 2.75624 5.10917C2.74166 4.87958 2.83249 4.68458 2.92333 4.54708C3.01296 4.41682 3.11944 4.29899 3.23999 4.19667C3.29888 4.14556 3.35527 4.10014 3.40916 4.06042C3.39305 3.97458 3.3761 3.87181 3.35833 3.75208C3.28489 3.22683 3.24869 2.69703 3.24999 2.16667C3.24999 2.03583 3.30583 1.93833 3.33166 1.89708C3.36416 1.845 3.40249 1.80042 3.43749 1.76458C3.50708 1.69167 3.59708 1.6175 3.69583 1.54625C3.89583 1.40125 4.17083 1.23833 4.49749 1.08583C5.14874 0.781667 6.04333 0.5 6.99999 0.5C7.95666 0.5 8.85124 0.782083 9.50249 1.08583C9.78336 1.21422 10.0517 1.36835 10.3042 1.54625C10.4029 1.6175 10.4929 1.69208 10.5625 1.76458C10.5975 1.80042 10.6358 1.845 10.6683 1.89708C10.6942 1.93833 10.75 2.03583 10.75 2.16667C10.75 2.83417 10.6958 3.375 10.6417 3.75208C10.6239 3.87208 10.6069 3.97486 10.5908 4.06042C10.6442 4.1 10.7021 4.14542 10.7604 4.19667C10.8646 4.28792 10.9837 4.40667 11.0767 4.54708C11.1679 4.68458 11.2583 4.87958 11.2442 5.10958C11.2287 5.35667 11.0975 5.5625 10.9017 5.71667ZM4.08416 2.29917C4.09041 2.86083 4.13708 3.315 4.18333 3.6325C4.19444 3.7075 4.20499 3.77444 4.21499 3.83333H9.78499C9.79527 3.77417 9.80583 3.70722 9.81666 3.6325C9.86249 3.315 9.90958 2.86083 9.91583 2.29917C9.88336 2.27179 9.84987 2.24566 9.81541 2.22083C9.66499 2.11208 9.43666 1.975 9.14999 1.84125C8.57374 1.57208 7.80166 1.33333 6.99999 1.33333C6.19833 1.33333 5.42624 1.57208 4.84999 1.84125C4.56333 1.975 4.33499 2.11208 4.18499 2.22042C4.15038 2.2455 4.11674 2.27191 4.08416 2.29958M3.99499 4.66667L3.99374 4.6675C3.92181 4.71539 3.85293 4.76772 3.78749 4.82417C3.71333 4.88917 3.65416 4.9525 3.61833 5.0075C3.60999 5.01999 3.60234 5.03293 3.59541 5.04625L3.61374 5.06167C3.67624 5.11083 3.81041 5.18292 4.07208 5.25417C4.12374 5.26806 4.17916 5.28167 4.23833 5.295L4.24208 5.29583C4.45124 5.34208 4.70874 5.38333 5.02249 5.41583C5.46708 5.46208 6.02666 5.4925 6.72583 5.49917L6.99999 5.5C8.34458 5.5 9.21416 5.41625 9.75833 5.29583L9.76166 5.295C9.82111 5.28194 9.87666 5.26833 9.92833 5.25417C10.1896 5.18333 10.3242 5.11083 10.3862 5.06167L10.4046 5.04625C10.3978 5.03294 10.3903 5.02 10.3821 5.0075C10.3334 4.93954 10.2765 4.87795 10.2125 4.82417C10.1472 4.76773 10.0785 4.71541 10.0067 4.6675L10.005 4.66667H3.99499ZM6.88666 6.33333C7.98749 6.33333 8.84083 6.275 9.49499 6.17333C9.49833 6.22611 9.49999 6.27944 9.49999 6.33333C9.4997 6.66698 9.43262 6.99719 9.30272 7.3045C9.17281 7.61182 8.98271 7.89002 8.7436 8.12272C8.5045 8.35542 8.22124 8.5379 7.91051 8.65942C7.59978 8.78093 7.26788 8.83902 6.93435 8.83026C6.60082 8.8215 6.27242 8.74607 5.9685 8.6084C5.66458 8.47074 5.39129 8.27364 5.16473 8.02871C4.93818 7.78378 4.76294 7.49598 4.64935 7.18227C4.53575 6.86856 4.48611 6.53528 4.50333 6.20208C5.11291 6.28625 5.89416 6.33333 6.88666 6.33333ZM3.69916 14.1988C3.67735 14.3538 3.66649 14.5101 3.66666 14.6667V15.0833C3.66671 15.1749 3.63657 15.264 3.58091 15.3367C3.52525 15.4095 3.44717 15.4619 3.35875 15.4858C3.27033 15.5097 3.17649 15.5038 3.09176 15.469C3.00702 15.4342 2.93611 15.3725 2.88999 15.2933C2.60904 15.4453 2.2806 15.4839 1.97208 15.4013L1.16708 15.1854C0.846976 15.0995 0.574102 14.89 0.408455 14.6029C0.242808 14.3158 0.19795 13.9747 0.283743 13.6546L0.607076 12.4471C0.69291 12.1269 0.902405 11.8539 1.18948 11.6882C1.47656 11.5225 1.81772 11.4776 2.13791 11.5633L2.94291 11.7788C3.22291 11.8538 3.45541 12.0183 3.61708 12.2333C4.00286 11.6965 4.51096 11.2593 5.09931 10.9579C5.68766 10.6565 6.33934 10.4995 7.00041 10.5C7.66112 10.4997 8.31242 10.6566 8.90046 10.9579C9.48849 11.2591 9.99636 11.6961 10.3821 12.2325C10.5498 12.0107 10.7868 11.8512 11.0554 11.7792L11.8604 11.5638C12.1805 11.478 12.5217 11.5228 12.8087 11.6885C13.0958 11.8541 13.3053 12.127 13.3912 12.4471L13.715 13.655C13.7575 13.8136 13.7683 13.979 13.7468 14.1417C13.7254 14.3045 13.6721 14.4614 13.59 14.6035C13.5079 14.7457 13.3986 14.8703 13.2683 14.9702C13.1381 15.0701 12.9894 15.1434 12.8308 15.1858L12.0262 15.4013C11.7183 15.4839 11.3903 15.4458 11.1096 15.2946C11.0633 15.3736 10.9923 15.4352 10.9075 15.4698C10.8228 15.5044 10.7289 15.5102 10.6406 15.4861C10.5522 15.4621 10.4742 15.4096 10.4187 15.3368C10.3632 15.264 10.3332 15.1749 10.3333 15.0833V14.6667C10.3335 14.5101 10.3226 14.3538 10.3008 14.1988L8.13249 14.78C8.03184 14.9954 7.87183 15.1777 7.67123 15.3054C7.47064 15.4331 7.23778 15.5009 6.99999 15.5009C6.7622 15.5009 6.52935 15.4331 6.32875 15.3054C6.12816 15.1777 5.96814 14.9954 5.86749 14.78L3.69916 14.1988ZM5.79999 13.8988C5.8557 13.7087 5.95577 13.5346 6.09197 13.3908C6.22816 13.247 6.39657 13.1376 6.58333 13.0717V11.3592C5.9989 11.4331 5.44446 11.6604 4.97631 12.018C4.50817 12.3755 4.143 12.8506 3.91791 13.395L5.79999 13.8988ZM10.0821 13.3946C9.85693 12.8503 9.49173 12.3753 9.02359 12.0178C8.55545 11.6603 8.00104 11.4331 7.41666 11.3592V13.0713C7.79333 13.2046 8.08749 13.5129 8.19999 13.8992L10.0821 13.3946ZM10.9767 13.0946C10.9625 13.0417 10.9589 12.9866 10.966 12.9323C10.9731 12.8781 10.9909 12.8258 11.0182 12.7784C11.0456 12.731 11.082 12.6894 11.1254 12.6561C11.1688 12.6228 11.2184 12.5983 11.2712 12.5842L12.0762 12.3683C12.1829 12.3398 12.2966 12.3548 12.3922 12.4101C12.4878 12.4653 12.5576 12.5563 12.5862 12.6629L12.91 13.8704C12.9242 13.9233 12.9278 13.9784 12.9207 14.0327C12.9135 14.0869 12.8958 14.1392 12.8684 14.1866C12.8411 14.234 12.8047 14.2756 12.7612 14.3089C12.7178 14.3422 12.6683 14.3667 12.6154 14.3808L11.8104 14.5967C11.7575 14.6108 11.7024 14.6144 11.6481 14.6073C11.5938 14.6001 11.5415 14.5823 11.4941 14.5549C11.4467 14.5276 11.4051 14.4911 11.3718 14.4476C11.3385 14.4042 11.3141 14.3546 11.3 14.3017L10.9767 13.0946ZM1.92249 12.3683C1.86961 12.3541 1.81443 12.3504 1.76013 12.3575C1.70582 12.3646 1.65345 12.3824 1.606 12.4097C1.55856 12.4371 1.51697 12.4735 1.48363 12.517C1.45028 12.5604 1.42582 12.61 1.41166 12.6629L1.08833 13.87C1.07415 13.9229 1.07052 13.978 1.07765 14.0322C1.08478 14.0865 1.10253 14.1388 1.12989 14.1862C1.15725 14.2336 1.19367 14.2752 1.23708 14.3085C1.2805 14.3418 1.33005 14.3663 1.38291 14.3804L2.18791 14.5963C2.24077 14.6104 2.2959 14.6141 2.35016 14.6069C2.40442 14.5998 2.45674 14.582 2.50414 14.5547C2.55154 14.5273 2.59308 14.4909 2.6264 14.4475C2.65972 14.4041 2.68416 14.3545 2.69833 14.3017L3.02166 13.0942C3.0359 13.0413 3.03958 12.9861 3.03247 12.9318C3.02537 12.8775 3.00763 12.8251 2.98027 12.7777C2.95291 12.7302 2.91647 12.6886 2.87302 12.6553C2.82958 12.622 2.77998 12.5975 2.72708 12.5833L1.92249 12.3683ZM7.41666 14.25C7.41666 14.3605 7.37276 14.4665 7.29462 14.5446C7.21648 14.6228 7.1105 14.6667 6.99999 14.6667C6.88949 14.6667 6.78351 14.6228 6.70537 14.5446C6.62722 14.4665 6.58333 14.3605 6.58333 14.25C6.58333 14.1395 6.62722 14.0335 6.70537 13.9554C6.78351 13.8772 6.88949 13.8333 6.99999 13.8333C7.1105 13.8333 7.21648 13.8772 7.29462 13.9554C7.37276 14.0335 7.41666 14.1395 7.41666 14.25Z" fill="#F15905"/>
</svg>
