<svg id="Workspace" xmlns="http://www.w3.org/2000/svg" width="86" height="86" viewBox="0 0 86 86">
  <rect id="Rectangle_21814" data-name="Rectangle 21814" width="86" height="86" fill="none"/>
  <line id="Line_8" data-name="Line 8" y2="7" transform="translate(29 32)" fill="none" stroke="#000" stroke-linecap="round" stroke-linejoin="round" stroke-width="1"/>
  <line id="Line_9" data-name="Line 9" y2="7" transform="translate(57 32)" fill="none" stroke="#000" stroke-linecap="round" stroke-linejoin="round" stroke-width="1"/>
  <path id="Path_23837" data-name="Path 23837" d="M14.583,9V19.75A3.583,3.583,0,0,1,11,23.333h0" transform="translate(28.417 23.25)" fill="none" stroke="#000" stroke-linecap="round" stroke-linejoin="round" stroke-width="1"/>
  <path id="Path_23838" data-name="Path 23838" d="M9.5,15a13.008,13.008,0,0,0,17.917,0h0" transform="translate(24.542 38.75)" fill="none" stroke="#000" stroke-linecap="round" stroke-linejoin="round" stroke-width="1"/>
  <path id="Path_23839" data-name="Path 23839" d="M15.75,5H8.583A3.583,3.583,0,0,0,5,8.583V15.75" transform="translate(12.917 12.917)" fill="none" stroke="#000" stroke-linecap="round" stroke-linejoin="round" stroke-width="1"/>
  <path id="Path_23840" data-name="Path 23840" d="M16,5h7.167A3.583,3.583,0,0,1,26.75,8.583V15.75" transform="translate(41.333 12.917)" fill="none" stroke="#000" stroke-linecap="round" stroke-linejoin="round" stroke-width="1"/>
  <path id="Path_23841" data-name="Path 23841" d="M26.75,16v7.167a3.583,3.583,0,0,1-3.583,3.583H16" transform="translate(41.333 41.333)" fill="none" stroke="#000" stroke-linecap="round" stroke-linejoin="round" stroke-width="1"/>
  <path id="Path_23842" data-name="Path 23842" d="M15.75,26.75H8.583A3.583,3.583,0,0,1,5,23.167V16" transform="translate(12.917 41.333)" fill="none" stroke="#000" stroke-linecap="round" stroke-linejoin="round" stroke-width="1"/>
</svg>
