<svg xmlns="http://www.w3.org/2000/svg" width="42" height="42" viewBox="0 0 42 42">
  <g id="vuesax_linear_notification-bing" data-name="vuesax/linear/notification-bing" transform="translate(-108 -188)">
    <g id="notification-bing" transform="translate(108 188)">
      <path id="Vector" d="M0,0V5.828" transform="translate(21 11.27)" fill="none" stroke="#00092c" stroke-linecap="round" stroke-width="1.5"/>
      <path id="Vector-2" data-name="Vector" d="M15.605,0A11.651,11.651,0,0,0,3.95,11.655V15.33a9.086,9.086,0,0,1-1.1,3.99L.625,23.03a3.732,3.732,0,0,0,2.1,5.688,40.845,40.845,0,0,0,25.777,0,3.884,3.884,0,0,0,2.1-5.687L28.38,19.32a9.152,9.152,0,0,1-1.1-3.99V11.655A11.722,11.722,0,0,0,15.605,0Z" transform="translate(5.43 3.5)" fill="none" stroke="#00092c" stroke-linecap="round" stroke-width="1.5"/>
      <path id="Vector-3" data-name="Vector" d="M11.655,0A5.848,5.848,0,0,1,5.827,5.827,5.838,5.838,0,0,1,1.715,4.113,5.838,5.838,0,0,1,0,0" transform="translate(15.172 32.935)" fill="none" stroke="#00092c" stroke-width="1.5"/>
      <path id="Vector-4" data-name="Vector" d="M0,0H42V42H0Z" fill="none" opacity="0"/>
    </g>
  </g>
</svg>
