<svg width="28" height="28" viewBox="0 0 28 28" fill="none" xmlns="http://www.w3.org/2000/svg">
<path fill-rule="evenodd" clip-rule="evenodd" d="M0.666687 14C0.666687 14.5134 1.08269 14.9307 1.59735 14.9307H4.12002C4.33699 17.2308 5.34957 19.3832 6.98322 21.0168C8.61686 22.6505 10.7692 23.663 13.0694 23.88V26.4027C13.0694 26.6495 13.1674 26.8862 13.3419 27.0608C13.5165 27.2353 13.7532 27.3334 14 27.3334C14.2468 27.3334 14.4836 27.2353 14.6581 27.0608C14.8326 26.8862 14.9307 26.6495 14.9307 26.4027V23.88C17.2308 23.663 19.3832 22.6505 21.0168 21.0168C22.6505 19.3832 23.663 17.2308 23.88 14.9307H26.4027C26.6495 14.9307 26.8862 14.8326 27.0608 14.6581C27.2353 14.4836 27.3334 14.2468 27.3334 14C27.3334 13.7532 27.2353 13.5165 27.0608 13.3419C26.8862 13.1674 26.6495 13.0694 26.4027 13.0694H23.88C23.663 10.7692 22.6505 8.61686 21.0168 6.98322C19.3832 5.34957 17.2308 4.33699 14.9307 4.12002V1.59735C14.9307 1.35053 14.8326 1.11381 14.6581 0.939273C14.4836 0.764739 14.2468 0.666687 14 0.666687C13.7532 0.666687 13.5165 0.764739 13.3419 0.939273C13.1674 1.11381 13.0694 1.35053 13.0694 1.59735V4.12002C10.7692 4.33699 8.61686 5.34957 6.98322 6.98322C5.34957 8.61686 4.33699 10.7692 4.12002 13.0694H1.59735C1.35074 13.0701 1.11443 13.1683 0.94005 13.3427C0.765669 13.5171 0.667391 13.7534 0.666687 14ZM9.34935 14C9.34935 12.7666 9.83933 11.5837 10.7115 10.7115C11.5837 9.83933 12.7666 9.34935 14 9.34935C15.2335 9.34935 16.4164 9.83933 17.2885 10.7115C18.1607 11.5837 18.6507 12.7666 18.6507 14C18.6507 15.2335 18.1607 16.4164 17.2885 17.2885C16.4164 18.1607 15.2335 18.6507 14 18.6507C12.7666 18.6507 11.5837 18.1607 10.7115 17.2885C9.83933 16.4164 9.34935 15.2335 9.34935 14Z" fill="white"/>
</svg>
