<svg width="14" height="17" viewBox="0 0 14 17" fill="none" xmlns="http://www.w3.org/2000/svg">
<path fill-rule="evenodd" clip-rule="evenodd" d="M4.33333 0.666656C4.00181 0.666656 3.68387 0.798353 3.44944 1.03277C3.21502 1.26719 3.08333 1.58514 3.08333 1.91666H1.83333C1.50181 1.91666 1.18387 2.04835 0.949445 2.28277C0.715024 2.51719 0.583328 2.83514 0.583328 3.16666V14.8333C0.583328 15.1648 0.715024 15.4828 0.949445 15.7172C1.18387 15.9516 1.50181 16.0833 1.83333 16.0833H6.83333V15.25H1.83333C1.72282 15.25 1.61684 15.2061 1.5387 15.128C1.46056 15.0498 1.41666 14.9438 1.41666 14.8333V3.16666C1.41666 3.05615 1.46056 2.95017 1.5387 2.87203C1.61684 2.79389 1.72282 2.74999 1.83333 2.74999H3.08333C3.08333 3.08151 3.21502 3.39945 3.44944 3.63387C3.68387 3.86829 4.00181 3.99999 4.33333 3.99999H7.66666C7.99818 3.99999 8.31612 3.86829 8.55055 3.63387C8.78497 3.39945 8.91666 3.08151 8.91666 2.74999H10.1667C10.2772 2.74999 10.3831 2.79389 10.4613 2.87203C10.5394 2.95017 10.5833 3.05615 10.5833 3.16666V9.41666H11.4167V3.16666C11.4167 2.83514 11.285 2.51719 11.0505 2.28277C10.8161 2.04835 10.4982 1.91666 10.1667 1.91666H8.91666C8.91666 1.58514 8.78497 1.26719 8.55055 1.03277C8.31612 0.798353 7.99818 0.666656 7.66666 0.666656H4.33333ZM3.91666 1.91666C3.91666 1.80615 3.96056 1.70017 4.0387 1.62203C4.11684 1.54389 4.22282 1.49999 4.33333 1.49999H7.66666C7.77717 1.49999 7.88315 1.54389 7.96129 1.62203C8.03943 1.70017 8.08333 1.80615 8.08333 1.91666V2.74999C8.08333 2.8605 8.03943 2.96648 7.96129 3.04462C7.88315 3.12276 7.77717 3.16666 7.66666 3.16666H4.33333C4.22282 3.16666 4.11684 3.12276 4.0387 3.04462C3.96056 2.96648 3.91666 2.8605 3.91666 2.74999V1.91666ZM5.58333 6.91666V5.66666H6.41666V6.91666H7.66666V7.74999H6.41666V8.99999H5.58333V7.74999H4.33333V6.91666H5.58333ZM7.24999 10.6667C7.24999 10.5562 7.29389 10.4502 7.37203 10.372C7.45017 10.2939 7.55615 10.25 7.66666 10.25H12.6667C12.7772 10.25 12.8831 10.2939 12.9613 10.372C13.0394 10.4502 13.0833 10.5562 13.0833 10.6667V13.4954C13.0833 13.9755 12.9648 14.4482 12.7382 14.8716C12.5116 15.2949 12.1841 15.6557 11.7846 15.9221L10.3979 16.8471C10.3294 16.8928 10.249 16.9171 10.1667 16.9171C10.0843 16.9171 10.0039 16.8928 9.93541 16.8471L8.54875 15.9221C8.14931 15.6558 7.82178 15.295 7.59523 14.8718C7.36867 14.4485 7.25008 13.9759 7.24999 13.4958V10.6667ZM8.08333 11.0833V13.4954C8.08337 13.8384 8.16808 14.176 8.32996 14.4784C8.49183 14.7808 8.72585 15.0385 9.01124 15.2287L10.1667 16L11.3221 15.2292C11.6075 15.0389 11.8415 14.7812 12.0034 14.4788C12.1652 14.1765 12.25 13.8388 12.25 13.4958V11.0833H8.08333ZM10.0446 14.2946L11.7112 12.6279L11.1221 12.0387L9.74999 13.4108L9.21124 12.8721L8.62208 13.4612L9.45541 14.2946C9.53355 14.3727 9.63951 14.4166 9.74999 14.4166C9.86048 14.4166 9.96644 14.3727 10.0446 14.2946Z" fill="#F15905"/>
</svg>
