<svg xmlns="http://www.w3.org/2000/svg" width="38" height="38" viewBox="0 0 38 38">
  <g id="vuesax_linear_shop-add" data-name="vuesax/linear/shop-add" transform="translate(-750 -188)">
    <g id="shop-add" transform="translate(750 188)">
      <path id="Vector" d="M21.027,0V7.109c0,7.109-2.834,9.959-9.959,9.959H2.533A17.966,17.966,0,0,1,0,16.91" transform="translate(12.239 17.765)" fill="none" stroke="#fff" stroke-linecap="round" stroke-linejoin="round" stroke-width="1.5"/>
      <path id="Vector-2" data-name="Vector" d="M0,6.808V0" transform="translate(4.813 17.765)" fill="none" stroke="#fff" stroke-linecap="round" stroke-linejoin="round" stroke-width="1.5"/>
      <path id="Vector-3" data-name="Vector" d="M4.791,15.833a4.694,4.694,0,0,0,4.75-5.257L8.48,0H1.086L.025,10.577A4.706,4.706,0,0,0,4.791,15.833Z" transform="translate(14.256 3.167)" fill="none" stroke="#fff" stroke-linecap="round" stroke-linejoin="round" stroke-width="1.5"/>
      <path id="Vector-4" data-name="Vector" d="M6.349,15.833a5.156,5.156,0,0,0,5.225-5.779L11.131,5.7C10.561,1.583,8.977,0,4.829,0H0L1.108,11.1A5.408,5.408,0,0,0,6.349,15.833Z" transform="translate(22.673 3.167)" fill="none" stroke="#fff" stroke-linecap="round" stroke-linejoin="round" stroke-width="1.5"/>
      <path id="Vector-5" data-name="Vector" d="M5.269,15.833A5.368,5.368,0,0,0,10.494,11.1l.348-3.5L11.6,0H6.774C2.625,0,1.042,1.583.472,5.7L.028,10.054A5.168,5.168,0,0,0,5.269,15.833Z" transform="translate(3.708 3.167)" fill="none" stroke="#fff" stroke-linecap="round" stroke-linejoin="round" stroke-width="1.5"/>
      <path id="Vector-6" data-name="Vector" d="M12.667,6.333A6.208,6.208,0,0,1,11.748,9.6a5.278,5.278,0,0,1-1.093,1.33.75.75,0,0,1-.158.158,6.269,6.269,0,0,1-8.962-.649c-.032-.047-.079-.079-.111-.127A4.475,4.475,0,0,1,.918,9.6,6.208,6.208,0,0,1,0,6.333a6.287,6.287,0,0,1,2.375-4.94A5.022,5.022,0,0,1,3.23.823a6.275,6.275,0,0,1,7.22.712,3.836,3.836,0,0,1,.523.491A6.351,6.351,0,0,1,12.667,6.333Z" transform="translate(1.583 23.75)" fill="none" stroke="#fff" stroke-linecap="round" stroke-linejoin="round" stroke-width="1.5"/>
      <g id="Group" transform="translate(5.558 27.74)">
        <path id="Vector-7" data-name="Vector" d="M4.718,0H0" transform="translate(0 2.312)" fill="none" stroke="#fff" stroke-linecap="round" stroke-linejoin="round" stroke-width="1.5"/>
        <path id="Vector-8" data-name="Vector" d="M0,0V4.734" transform="translate(2.359)" fill="none" stroke="#fff" stroke-linecap="round" stroke-linejoin="round" stroke-width="1.5"/>
      </g>
      <path id="Vector-9" data-name="Vector" d="M0,0H38V38H0Z" fill="none" opacity="0"/>
    </g>
  </g>
</svg>
