<svg xmlns="http://www.w3.org/2000/svg" width="33.383" height="50.802" viewBox="0 0 33.383 50.802">
  <g id="dressing_x5F_table" transform="translate(-96.714 -13.6)">
    <path id="Path_15004" data-name="Path 15004" d="M129.379,186.517h-1.743a.719.719,0,0,0-.718.718v4.049h-1.08V189.96a.719.719,0,0,0-.718-.718H121.9a.719.719,0,0,0-.718.718v1.325h-15.56V189.96a.719.719,0,0,0-.718-.718h-3.216a.719.719,0,0,0-.718.718v1.325H99.894v-4.049a.719.719,0,0,0-.718-.718H97.432a.719.719,0,0,0-.718.718v30.956a1.009,1.009,0,0,0,1.007,1.008H129.09a1.009,1.009,0,0,0,1.008-1.008V187.235A.72.72,0,0,0,129.379,186.517ZM101.727,190h3.144v1.288h-3.144Zm-4.259-2.725h1.671v4.013H97.468Zm15.559,31.173H97.721a.253.253,0,0,1-.253-.253V192.039h15.559ZM121.939,190h3.144v1.288h-3.144Zm7.4,28.2a.253.253,0,0,1-.253.253H113.782V192.039h15.561v26.152Zm0-26.907h-1.671v-4.013h1.671Z" transform="translate(0 -154.797)" fill="#fff"/>
    <path id="Path_15005" data-name="Path 15005" d="M113.711,273.365h13.505V249.014H113.711Zm.754-23.6h12v22.842h-12Z" transform="translate(-15.216 -210.745)" fill="#fff"/>
    <path id="Path_15006" data-name="Path 15006" d="M269.4,273.365H282.9V249.014H269.4Zm.754-23.6h12v22.842h-12Z" transform="translate(-154.587 -210.745)" fill="#fff"/>
    <rect id="Rectangle_17476" data-name="Rectangle 17476" width="0.754" height="4.513" transform="translate(109.721 48.188)" fill="#fff"/>
    <rect id="Rectangle_17477" data-name="Rectangle 17477" width="0.754" height="4.513" transform="translate(116.372 48.188)" fill="#fff"/>
    <path id="Path_15007" data-name="Path 15007" d="M183.125,35.779c4.7,0,8.53-4.975,8.53-11.089S187.828,13.6,183.125,13.6s-8.53,4.975-8.53,11.089S178.421,35.779,183.125,35.779Zm0-21.424c4.287,0,7.775,4.636,7.775,10.335s-3.488,10.335-7.775,10.335-7.775-4.636-7.775-10.335S178.837,14.354,183.125,14.354Z" transform="translate(-69.72 0)" fill="#fff"/>
    <path id="Path_15008" data-name="Path 15008" d="M199.238,50.006a5.806,5.806,0,0,0,4.564-2.542,11.019,11.019,0,0,0,2.08-6.661,11.019,11.019,0,0,0-2.08-6.661,5.368,5.368,0,0,0-9.128,0,11.019,11.019,0,0,0-2.08,6.661,11.019,11.019,0,0,0,2.08,6.661A5.806,5.806,0,0,0,199.238,50.006ZM195.274,34.6a4.621,4.621,0,0,1,7.927,0,10.263,10.263,0,0,1,1.925,6.2,10.263,10.263,0,0,1-1.925,6.2,4.621,4.621,0,0,1-7.927,0,10.263,10.263,0,0,1-1.926-6.2A10.263,10.263,0,0,1,195.274,34.6Z" transform="translate(-85.833 -16.114)" fill="#fff"/>
  </g>
</svg>
